<?xml version="1.0" standalone="no"?>
<!DOCTYPE svg PUBLIC "-//W3C//DTD SVG 1.1//EN" "http://www.w3.org/Graphics/SVG/1.1/DTD/svg11.dtd" >
<svg xmlns="http://www.w3.org/2000/svg">
<metadata>
Created by FontForge 20120731 at Mon Apr 11 18:06:45 2016
 By admin
</metadata>
<defs>
<font id="iconfont" horiz-adv-x="1024" >
  <font-face 
    font-family="iconfont"
    font-weight="500"
    font-stretch="normal"
    units-per-em="1024"
    panose-1="2 0 6 3 0 0 0 0 0 0"
    ascent="896"
    descent="-128"
    x-height="792"
    bbox="-51 -128.154 1076 896"
    underline-thickness="50"
    underline-position="-100"
    unicode-range="U+0078-E61C"
  />
<missing-glyph horiz-adv-x="374" 
d="M34 0v682h272v-682h-272zM68 34h204v614h-204v-614z" />
    <glyph glyph-name=".notdef" horiz-adv-x="374" 
d="M34 0v682h272v-682h-272zM68 34h204v614h-204v-614z" />
    <glyph glyph-name=".null" horiz-adv-x="0" 
 />
    <glyph glyph-name="nonmarkingreturn" horiz-adv-x="341" 
 />
    <glyph glyph-name="x" unicode="x" horiz-adv-x="1001" 
d="M281 543q-27 -1 -53 -1h-83q-18 0 -36.5 -6t-32.5 -18.5t-23 -32t-9 -45.5v-76h912v41q0 16 -0.5 30t-0.5 18q0 13 -5 29t-17 29.5t-31.5 22.5t-49.5 9h-133v-97h-438v97zM955 310v-52q0 -23 0.5 -52t0.5 -58t-10.5 -47.5t-26 -30t-33 -16t-31.5 -4.5q-14 -1 -29.5 -0.5
t-29.5 0.5h-32l-45 128h-439l-44 -128h-29h-34q-20 0 -45 1q-25 0 -41 9.5t-25.5 23t-13.5 29.5t-4 30v167h911zM163 247q-12 0 -21 -8.5t-9 -21.5t9 -21.5t21 -8.5q13 0 22 8.5t9 21.5t-9 21.5t-22 8.5zM316 123q-8 -26 -14 -48q-5 -19 -10.5 -37t-7.5 -25t-3 -15t1 -14.5
t9.5 -10.5t21.5 -4h37h67h81h80h64h36q23 0 34 12t2 38q-5 13 -9.5 30.5t-9.5 34.5q-5 19 -11 39h-368zM336 498v228q0 11 2.5 23t10 21.5t20.5 15.5t34 6h188q31 0 51.5 -14.5t20.5 -52.5v-227h-327z" />
    <glyph glyph-name="uniE600" unicode="&#xe600;" 
d="M354 78.5q0 -40.5 -29 -69.5t-69.5 -29t-69.5 29t-29 69.5t29 69.5t69.5 29t69.5 -29t29 -69.5zM905 78.5q0 -40.5 -29 -69.5t-70 -29t-69.5 29t-28.5 69.5t28.5 69.5t69.5 29t70 -29t29 -69.5zM992 414l-87 156q-1 1 -5.5 6t-5.5 6.5t-4.5 5.5t-5 5.5t-5 4.5t-6 4t-6 3
t-6.5 2.5t-7 1t-8 0.5h-138v118q0 17 -11.5 28.5t-27.5 11.5h-630q-16 0 -27.5 -11.5t-11.5 -28.5v-590q0 -16 11.5 -27.5t27.5 -11.5h79q7 51 46 85.5t91.5 34.5t91.5 -34.5t47 -85.5h274q8 51 47 85.5t91.5 34.5t91.5 -34.5t46 -85.5h39q16 0 28 11.5t12 27.5v197
q0 17 -8 36.5t-15 31.5zM747 334v197h96q3 0 7 -2.5t6 -4.5l3 -3l82 -153q16 -23 16 -34h-210z" />
    <glyph glyph-name="uniE601" unicode="&#xe601;" 
d="M578 474h-240q-6 0 -10 4t-4 9.5t4 9.5t10 4h240q6 0 10 -4t4 -9.5t-4 -9.5t-10 -4zM685 474h-40q-6 0 -9.5 4t-3.5 9.5t3.5 9.5t9.5 4h40q6 0 9.5 -4t3.5 -9.5t-3.5 -9.5t-9.5 -4zM498 341h-147q-5 0 -9 3.5t-4 9t4 9.5t9 4h147q6 0 9.5 -4t3.5 -9.5t-3.5 -9t-9.5 -3.5z
M578 341h-26q-6 0 -10 3.5t-4 9t4 9.5t10 4h26q6 0 10 -4t4 -9.5t-4 -9t-10 -3.5zM274 167q-69 49 -105.5 116.5t-34.5 140.5q2 85 54 159t138.5 117t183.5 43q104 0 196 -49q-1 6 -1 12q0 23 8 45q-95 46 -203 46q-111 0 -209.5 -50.5t-158 -136t-62.5 -184.5
q-2 -87 40.5 -166.5t122.5 -136.5q9 -6 20 -4.5t17.5 10.5t4.5 20t-11 18zM836 579q51 -73 51 -154q0 -90 -50.5 -166.5t-137.5 -121t-189 -44.5q-7 0 -13 -3l-121 -66l1 1q28 59 2 85q-8 8 -19 8t-19 -8q-15 -15 -4 -33q0 -11 -9 -30l-31 -73q-7 -18 7 -30q8 -7 18 -7
q7 0 13 3l182 100q115 2 212.5 53.5t154 140t56.5 191.5q0 88 -48 168q-26 -13 -56 -14zM956 718.5q0 -46.5 -33 -79t-79.5 -32.5t-79 32.5t-32.5 79t32.5 79t79 32.5t79.5 -32.5t33 -79z" />
    <glyph glyph-name="uniE602" unicode="&#xe602;" 
d="M76 399h870v-52h-870v52zM485 808h51v-870h-51v870z" />
    <glyph glyph-name="uniE603" unicode="&#xe603;" 
d="M958 350q0 -43 -15.5 -79t-50.5 -51q18 -49 18 -98q0 -40 -12.5 -70t-39 -50t-59 -33t-80.5 -19.5t-96 -9.5t-112 -3q-66 0 -113 2.5t-95.5 9t-81 19.5t-59 32.5t-39 49.5t-12.5 69q0 49 17 97q-34 13 -49.5 50.5t-15.5 83.5q0 71 39.5 129.5t120.5 94.5q-25 48 -25 108
q0 61 48.5 105.5t135.5 44.5q81 0 129 -52q47 52 127 52q87 0 136 -44.5t49 -105.5q0 -60 -25 -108q81 -36 120.5 -94.5t39.5 -129.5zM511 -2q45 0 76.5 0.5t71 3.5t65.5 8t53 14t43 21.5t26 31.5t10 43q0 81 -69.5 158.5t-174.5 126.5q32 30 46.5 75.5t14.5 87.5
q0 33 -13.5 57.5t-37.5 38t-51.5 20t-59.5 6.5q-45 0 -86 -13.5t-69 -42t-28 -66.5q0 -93 61 -163q-117 -69 -170.5 -136.5t-53.5 -148.5q0 -19 6 -35t15.5 -28t27 -21.5t34 -15.5t43 -10.5t47.5 -6.5t54.5 -3t57 -1.5t61.5 -0.5zM127 347q0 -43 28 -73q54 89 164 149
q-45 60 -49 127q-68 -36 -105.5 -89.5t-37.5 -113.5zM255 665v-9v-10v-10q0 -7 0.5 -10t1 -9t2 -10t3 -9.5t4 -10t5.5 -8.5q7 61 55 111t126 62q-29 19 -70 19q-52 0 -89.5 -28.5t-37.5 -77.5zM734 559q5 5 9.5 10.5t7.5 10t5.5 10.5t4 10t2.5 11t2 10.5t1 11.5v11v10v11
q0 49 -38 77.5t-90 28.5q-44 0 -75 -23q77 -18 123 -71.5t46 -117.5q0 -81 -46 -136q118 -53 177 -146q31 29 31 70q0 64 -42 120.5t-118 91.5zM572 385l-61 -285l-61 285l61 -41z" />
    <glyph glyph-name="uniE604" unicode="&#xe604;" 
d="M642 407q33 26 51.5 63.5t18.5 80.5q0 76 -53.5 129.5t-129 53.5t-129.5 -53.5t-54 -129.5q0 -43 19 -80.5t52 -63.5q-86 -34 -139.5 -111t-53.5 -172v-90h610v90q0 95 -53.5 172t-138.5 111v0zM529 673q51 0 86.5 -35.5t35.5 -86t-35.5 -86.5t-86 -36t-86.5 36t-36 86.5
t36 86t86 35.5v0zM773 94h-488v30q0 101 71.5 172.5t172.5 71.5t172.5 -71.5t71.5 -172.5v-30v0zM325 397q1 1 1 3v2q1 3 1 4v7v1v2q0 1 -0.5 1.5t-0.5 1.5q-1 1 -2 3q-2 5 -4 8h-1q-4 5 -10 7q-25 11 -39.5 33.5t-14.5 50.5q0 31 19.5 56t50.5 32q12 3 18.5 14t3.5 23
t-13.5 19t-22.5 4q-52 -13 -84.5 -54t-32.5 -94q0 -59 40 -103q-60 -31 -96 -89t-36 -127v-47q0 -13 9 -22t22 -9t21.5 9t8.5 22v47q0 63 38.5 112.5t99.5 64.5q17 3 24 18v0zM825 418q39 44 39 103q0 51 -31.5 92t-80.5 55q-13 3 -24 -3.5t-14 -18.5t3 -23t19 -14
q30 -8 48.5 -32.5t18.5 -55.5q0 -28 -14.5 -50.5t-39.5 -33.5q-6 -2 -10 -7q-3 -3 -5 -8q-1 -2 -2 -3v-1q0 -1 -1 -1v-2v-2v-7q0 -1 0.5 -2t0.5 -1.5t0.5 -2.5t0.5 -3q7 -16 24 -18q61 -15 99.5 -64.5t38.5 -112.5v-47q0 -13 9 -22t21.5 -9t21.5 9t9 22v47q0 69 -35.5 127
t-95.5 89v0z" />
    <glyph glyph-name="uniE605" unicode="&#xe605;" 
d="M466 12h-270q-26 0 -44.5 18.5t-18.5 44.5q21 82 93 136t160 54q49 0 100 -21q33 60 86 97q-1 0 -2 1t-2 1q70 74 70 174v126q0 105 -74 179t-178.5 74t-178.5 -74t-74 -179v-126q0 -100 70 -174q-76 -42 -129 -112.5t-67 -155.5q0 -78 55.5 -133.5t133.5 -55.5h360
q-63 50 -90 126zM259 643q0 53 37 90t89.5 37t89.5 -37t37 -90v-126q0 -52 -37 -89t-89.5 -37t-89.5 37t-37 89v126zM733 328q-92 0 -156.5 -65t-64.5 -156.5t64.5 -156t156.5 -64.5t156.5 64.5t64.5 156t-64.5 156.5t-156.5 65zM828 75h-63v-63q0 -13 -9.5 -22.5
t-22.5 -9.5t-22.5 9.5t-9.5 22.5v63h-63q-13 0 -22 9.5t-9 22.5t9 22t22 9h63v63q0 13 9.5 22.5t22.5 9.5t22.5 -9.5t9.5 -22.5v-63h63q13 0 22 -9t9 -22t-9 -22.5t-22 -9.5z" />
    <glyph glyph-name="uniE606" unicode="&#xe606;" 
d="M607 698q-36 -36 -36 -87.5t36 -87.5t87.5 -36t87.5 36t36 87.5t-36 87.5t-87.5 36t-87.5 -36zM738 567q-18 -18 -43.5 -18t-43.5 18t-18 43.5t18 43.5t43.5 18t43.5 -18t18 -43.5t-18 -43.5zM979 440v399q0 24 -17 40.5t-40 16.5h-401q-9 0 -15.5 -1t-13.5 -6t-10 -8
t-13 -14t-15 -16l-395 -393q-36 -37 -36 -88t36 -87l307 -306q36 -36 87.5 -36t87.5 36l394 393q3 3 12 11.5t11.5 11t8 9.5t7 11.5t3.5 11.5t2 15zM497 21q-18 -18 -43.5 -18t-43.5 18l-307 306q-18 18 -18 43.5t18 43.5l44 44l394 -394zM922 468q0 -24 -30 -54l-307 -306
l-394 394l306 305q32 32 53 32h343q12 0 20.5 -8.5t8.5 -20.5v-342zM1005 72h-99v100q0 8 -5.5 13.5t-13.5 5.5h-22q-8 0 -13.5 -5.5t-5.5 -13.5v-99h-99q-8 -1 -13.5 -6t-5.5 -13v-23q0 -7 5.5 -12.5t13.5 -5.5h99v-100q0 -7 5.5 -12.5t13.5 -5.5h22q8 0 13.5 5.5t5.5 12.5
v100h99q8 0 13.5 5.5t5.5 12.5v23q0 8 -5.5 13t-13.5 5z" />
    <glyph glyph-name="uniE607" unicode="&#xe607;" 
d="M495 832q-1 1 -3 4h-422v-876h665v632zM490 830v-238v238zM472 592h259h-259zM709 80v105h52v-105h105v-52h-105v-105h-52v105h-105v52h105zM709 80z" />
    <glyph glyph-name="uniE608" unicode="&#xe608;" 
d="M957 450h-378v378q0 28 -19.5 47.5t-47.5 19.5t-47.5 -19.5t-19.5 -47.5v-378h-378q-27 0 -47 -19.5t-20 -47t20 -47t47 -19.5h378v-378q0 -28 19.5 -47.5t47.5 -19.5t47.5 19.5t19.5 47.5v378h378q27 0 46.5 19.5t19.5 47t-19.5 47t-46.5 19.5z" />
    <glyph glyph-name="uniE609" unicode="&#xe609;" 
d="M533 804l185 -121v-721h-185v842zM733 284v-318h226v246zM829 35l-70 20v60l70 -25v-55zM829 139l-70 20v60l70 -25v-55zM915 10l-69 20v60l69 -26v-54zM915 114l-69 20v60l69 -25v-55zM284 660v-478l-33 -21v159l-21 -8v159l-151 -67v-155l-14 -6v-281h447v844zM93 374
l51 24v-62l-51 -22v60zM97 275l51 23v-61l-51 -23v61zM149 54l-51 -22v60l51 24v-62zM149 148l-51 -23v60l51 24v-61zM156 404l51 23v-61l-51 -23v61zM160 304l51 24v-62l-51 -22v60zM217 84l-51 -23v60l51 24v-61zM217 177l-51 -23v61l51 23v-61zM380 166l-70 -44v66l70 45
v-67zM380 277l-70 -44v65l70 46v-67zM380 388l-70 -45v66l70 46v-67zM380 498l-70 -44v65l70 46v-67zM380 609l-70 -44v65l70 46v-67zM485 232l-82 -51v67l82 53v-69zM485 342l-82 -51v68l82 53v-70zM485 453l-82 -51v67l82 53v-69zM485 563l-82 -51v68l82 53v-70zM485 674
l-82 -51v67l82 53v-69z" />
    <glyph glyph-name="uniE60A" unicode="&#xe60a;" 
d="M550 -127h-21q-16 1 -27 13.5t-10 29t13 27t29 10.5q42 -3 70 6.5t50 33.5q41 46 99 197q82 219 179 520l-508 101l-179 -491q-5 -15 -20 -22t-30.5 -1.5t-22.5 20.5t-1 30l190 523q5 14 18 21t27 4l585 -116q18 -4 27 -19t3 -32q-96 -307 -194 -566q-32 -84 -58 -136.5
t-57 -85.5q-61 -67 -162 -67zM554 -128q-22 -1 -48 4.5t-42 12.5l-15 6l-330 150q-2 1 -5.5 2t-13.5 6.5t-20 12t-22 18t-22 25t-18.5 33t-13 41.5t-3.5 51.5t9 62.5l450 -182q0 -4 -0.5 -10.5t0.5 -24.5t4.5 -34.5t12 -36t21.5 -32t35 -19.5t51 -3q20 -19 11 -48t-41 -35z
M763 513q-6 0 -11 2l-173 47q-16 4 -24 18.5t-3.5 30.5t18.5 24t30 4l173 -48q16 -4 24 -18.5t4 -29.5q-4 -13 -14.5 -21.5t-23.5 -8.5zM693 341q-7 0 -13 2l-172 57q-16 5 -23.5 19.5t-2 30.5t20 23t30.5 2l172 -56q15 -5 22.5 -20t2.5 -30q-4 -13 -14.5 -20.5t-22.5 -7.5z
M628 182q-7 0 -13 2l-172 56q-16 5 -23 20t-2 30.5t19.5 23t30.5 1.5l172 -56q16 -5 23.5 -20t1.5 -30q-4 -12 -14.5 -19.5t-22.5 -7.5zM473 597h-8l-2 1q-3 1 -4 1q-16 3 -25 17t-5.5 30t17.5 25t30 5q1 0 3 -1h2q17 -3 25.5 -17t5.5 -30q-3 -14 -14 -22.5t-25 -8.5z
M411 433h-8l-2 1q-3 0 -4 1q-16 3 -25 17t-5.5 30t17.5 25t30 5q1 0 4 -1h2q16 -3 25 -17t5 -30q-3 -14 -14 -22.5t-25 -8.5zM348 280q-4 0 -8 1l-2 1q-3 0 -4 1q-16 3 -25 17t-5.5 30t17.5 25t30 5l3 -1h3q16 -4 25 -17.5t5 -29.5q-3 -14 -14 -23t-25 -9z" />
    <glyph glyph-name="uniE60B" unicode="&#xe60b;" 
d="M737.5 376q-90.5 0 -154.5 -64t-64 -154.5t64 -154.5t154.5 -64t154.5 64t64 154.5t-64 154.5t-154.5 64zM858 126h-90v-90h-61v90h-90v62h90v90h61v-90h90v-62zM620 483h-389v-60h389v60zM563 352h-332v-60h283q20 34 49 60zM146 52v551h559v-186q16 2 33 2q23 0 47 -4
v381h-719v-824h486q-34 35 -54 80h-352zM231 162h245q1 30 8 60h-253v-60z" />
    <glyph glyph-name="uniE60C" unicode="&#xe60c;" 
d="M767 177q41 0 69.5 -29t28.5 -69.5t-28.5 -69.5t-69.5 -29t-69.5 29t-28.5 69.5t28.5 69.5t69.5 29zM216.5 177q40.5 0 69.5 -29t29 -69.5t-29 -69.5t-69.5 -29t-69.5 29t-29 69.5t29 69.5t69.5 29zM0 334v-196q0 -17 11.5 -28.5t27.5 -11.5h39q8 51 47 85.5t91.5 34.5
t91.5 -34.5t46 -85.5h275q7 51 46 85.5t91.5 34.5t91.5 -34.5t47 -85.5h78q16 0 28 11.5t12 28.5l-1 589q0 17 -11.5 28.5t-27.5 11.5h-629q-16 0 -27.5 -11.5t-11.5 -28.5v-118h-138q-14 0 -25.5 -6.5t-15.5 -11t-18 -21.5l-88 -156q-30 -43 -30 -80zM66 334q0 11 15 34
l83 154q9 9 15 9h96v-197h-209z" />
    <glyph glyph-name="uniE60D" unicode="&#xe60d;" 
d="M581 -50q-78 -12 -153 -12q-361 0 -361 99v58q0 55 71 102.5t169 66.5q4 2 10 6.5t14.5 19.5t3.5 32q-17 21 -29 46t-15 39l-4 14q-14 6 -22 17q-11 15 -18.5 41.5t-5.5 46.5q1 10 3 15.5t3.5 6.5t3 1.5t1.5 1.5q-17 50 -11.5 102.5t30.5 97.5q23 41 59.5 60.5t70 18.5
t60.5 -12.5t36 -28.5q37 7 63 -9.5t37.5 -46.5t15.5 -66t1 -66t-9 -48q2 -1 4 -2.5t4.5 -15t1.5 -36t-12.5 -43.5t-22.5 -31l-11 -9q-1 -13 -14 -40.5t-32 -53.5q-7 -15 -5 -27q-40 -64 -40 -138q0 -62 27.5 -116t75.5 -91zM957 157.5q0 -90.5 -64 -154.5t-154.5 -64
t-154.5 64t-64 154.5t64 154.5t154.5 64t154.5 -64t64 -154.5zM859 188h-90v90h-61v-90h-90v-62h90v-90h61v90h90v62z" />
    <glyph glyph-name="uniE60E" unicode="&#xe60e;" 
d="M640 512v383h-256v-383h-384v-256h384v-384h256v384h383v256h-383z" />
    <glyph glyph-name="uniE60F" unicode="&#xe60f;" 
d="M512 607q46 0 79 33t33 79t-33 79t-79 33t-79 -33t-33 -79t33 -79t79 -33zM512 496q-46 0 -79 -33t-33 -79t33 -79t79 -33t79 33t33 79t-33 79t-79 33zM512 161q-46 0 -79 -33t-33 -79t33 -79t79 -33t79 33t33 79t-33 79t-79 33z" />
    <glyph glyph-name="uniE610" unicode="&#xe610;" 
d="M763 290h-217v95h217q11 0 18.5 7.5t7.5 18.5t-7.5 18.5t-18.5 7.5h-182l23 38h-1l130 211q7 12 3.5 25t-14.5 20t-24.5 4t-20.5 -15l-165 -270l-165 270q-7 12 -20.5 15t-24.5 -4t-14.5 -20t3.5 -25l153 -249h-183q-11 0 -18.5 -7.5t-7.5 -18.5t7.5 -18.5t18.5 -7.5h217
v-95h-217q-11 0 -18.5 -7.5t-7.5 -18.5t7.5 -18.5t18.5 -7.5h217v-172q0 -14 10 -24t24 -10t24 10t10 24v172h217q11 0 18.5 7.5t7.5 18.5t-7.5 18.5t-18.5 7.5z" />
    <glyph glyph-name="uniE611" unicode="&#xe611;" 
d="M671 334h-121v63h121q16 0 27 11t11 27t-11 27t-27 11h-60l59 126q6 11 0.5 24.5t-19 21.5t-27 6.5t-19.5 -12.5l-77 -164q-1 -1 -1 -2h-20q0 2 -1 4l-77 156q-6 10 -19.5 12t-27 -6t-18.5 -21t0 -23l60 -122h-71q-16 0 -27 -11t-11 -27t11 -27t27 -11h121v-63h-121
q-16 0 -27 -11t-11 -27t11 -27t27 -11h121v-100q0 -16 11 -27t27 -11t27 11t11 27v100h121q16 0 27 11t11 27t-11 27t-27 11z" />
    <glyph glyph-name="uniE612" unicode="&#xe612;" 
d="M512 26q-65 0 -120 11t-92.5 36.5t-37.5 61.5q0 41 50 69t116 36h4l-110 177l-10 20l-3 6v3q-15 38 -15 78q0 90 64 154t154 64t154 -64t64 -154q0 -40 -15 -78l-1 -4l-1 -2q-5 -12 -11 -22l-190 -317l-45 74h-2q-49 -4 -85 -16t-47 -22l-2 -2l2 -2q15 -14 62 -26.5
t113 -12.5h8q66 0 113 12.5t62 26.5l2 2l-2 2q-23 20 -92 33l39 61q60 -13 92 -38t32 -58q0 -36 -37.5 -61.5t-92.5 -36.5t-120 -11zM512 642q-38 0 -65.5 -27.5t-27.5 -66t27.5 -66t65.5 -27.5t65.5 27.5t27.5 66t-27.5 66t-65.5 27.5zM512 642z" />
    <glyph glyph-name="uniE613" unicode="&#xe613;" 
d="M448 338l-384 494h896l-384 -494v-274l-128 -128v402z" />
    <glyph glyph-name="uniE614" unicode="&#xe614;" 
d="M128 768l320 -384v-384l128 128v256l320 384h-768z" />
    <glyph glyph-name="uniE615" unicode="&#xe615;" 
d="M880 -25h-736q-34 0 -58 24t-24 58v654q0 34 24 58t58 24h736q34 0 58 -24t24 -58v-654q0 -34 -24 -58t-58 -24zM335 388q0 27 -19 45.5t-45 18.5h-22q-26 0 -45 -18.5t-19 -45.5v-22q0 -26 19 -45t45 -19h22q26 0 45 19t19 45v22zM594 388q0 27 -19 45.5t-45 18.5h-22
q-26 0 -45 -18.5t-19 -45.5v-22q0 -26 19 -45t45 -19h22q26 0 45 19t19 45v22zM853 388q0 27 -19 45.5t-46 18.5h-21q-27 0 -45.5 -18.5t-18.5 -45.5v-22q0 -26 18.5 -45t45.5 -19h21q27 0 46 19t19 45v22z" />
    <glyph glyph-name="uniE616" unicode="&#xe616;" 
d="M512.5 833q-91.5 0 -174.5 -35.5t-143 -95.5t-95.5 -143t-35.5 -174.5t35.5 -174.5t95.5 -143t143 -95.5t174.5 -35.5t174.5 35.5t143 95.5t95.5 143t35.5 174.5t-35.5 174.5t-95.5 143t-143 95.5t-174.5 35.5zM675 415v-39h-132v-58h132v-39h-132v-126h-60v126h-131v39
h131v58h-131v39h105l-132 207h69l119 -201l119 201h69l-132 -207h106z" />
    <glyph glyph-name="uniE617" unicode="&#xe617;" 
d="M760 324h-186v79h186q25 0 43 25t18 54t-18 57t-43 28h-92l101 195q10 18 1 41t-32 37t-46.5 11t-32.5 -21l-133 -259q0 -1 -2 -4h-32q-1 4 -3 8l-131 245q-10 17 -33 20t-45.5 -10.5t-32 -35.5t0.5 -40l102 -187h-121q-26 0 -48.5 -28.5t-22.5 -56.5t22.5 -53.5
t48.5 -25.5h179v-79h-179q-26 0 -48.5 -25.5t-22.5 -52.5q0 -28 22.5 -57t48.5 -29h179v-150q0 -25 31 -44.5t60 -19.5h1q27 0 50.5 19t23.5 45v150h186q25 0 43 28t18 58q0 28 -18 53t-43 25z" />
    <glyph glyph-name="uniE618" unicode="&#xe618;" 
d="M235 457q-27 24 -64 24q-40 0 -68 -28q-29 -28 -29 -69q0 -37 24 -64q29 -33 73 -33q40 0 68 28q29 28 29 69q0 44 -33 73zM511 481q-38 0 -65 -25q-32 -29 -32 -72q0 -36 23 -63q29 -34 74 -34q44 0 73 33q24 27 24 64q0 39 -27 67q-29 30 -70 30zM921 452
q-29 29 -70 29q-37 0 -65 -25q-32 -29 -32 -72q0 -37 25 -65q29 -32 72 -32q35 0 62 22q35 29 35 75q0 39 -27 68z" />
    <glyph glyph-name="uniE619" unicode="&#xe619;" 
d="M73 383.5q0 49.5 35.5 84.5t85 35t84.5 -35t35 -84.5t-35 -85t-84.5 -35.5t-85 35.5t-35.5 85zM392 384q0 50 35 85t85 35t85 -35t35 -85t-35 -85t-85 -35t-85 35t-35 85zM707 383.5q0 49.5 35 84.5t84.5 35t84.5 -35t35 -84.5t-35 -85t-84.5 -35.5t-84.5 35.5t-35 85z
" />
    <glyph glyph-name="uniE61A" unicode="&#xe61a;" horiz-adv-x="1116" 
d="M110 715q-15 43 5.5 83.5t63.5 55t84 -6t55 -63.5l215 -654q-31 8 -62 3l-209 632q-7 20 -25.5 29.5t-38.5 3t-29.5 -25.5t-3.5 -39q4 -11 -1.5 -22t-17 -15t-22.5 1.5t-14 17.5zM959 202l-353 -116q19 -22 28 -50q1 -1 1 -2v-1l342 113q12 4 17.5 15t1.5 22.5t-15 17
t-22 1.5zM607 26.5q15 -45.5 -7 -88.5t-67.5 -58t-88 6.5t-57.5 67t6.5 88.5t67 58t88.5 -6.5t58 -67zM551.5 8q-7.5 23 -29 33.5t-44 3t-33.5 -28.5t-3.5 -44t29 -33.5t44.5 -3t33.5 28.5t3 44zM870 646l120 -364q1 -6 -1.5 -11.5t-8.5 -7.5l-377 -124q-6 -2 -11.5 1
t-7.5 8l-120 364q-2 6 1 11t9 7l377 125q6 2 11.5 -1t7.5 -8zM820 434l-129 71l-61 -133l41 -19l26 58l48 -145l45 15l-47 145l55 -31zM708 651l-77 233q-3 9 -12 6l-66 -22v-1l-1 1l-34 -12l28 -86l-39 -13l-28 86l-35 -11v-1h-1l-65 -21q-9 -3 -6 -12l76 -232q3 -9 12 -6
l242 79q9 3 6 12z" />
    <glyph glyph-name="uniE61B" unicode="&#xe61b;" 
d="M410 301v205q0 4 -4 8t-9 4t-9 -4t-4 -8v-180h-179q-5 0 -9 -4t-4 -8.5t4 -8.5t9 -4h205zM704 723q-24 5 -41 -11t-17 -40v-262h-51l77 -135q10 -14 22.5 -14t22.5 14l77 135h-52v256q0 20 -10 36.5t-28 20.5zM877 896h-512q-44 0 -76.5 -34t-32.5 -81v-122
q0 -34 -26 -51l-192 -186q-15 -15 -23.5 -30.5t-8.5 -33.5v-313q0 -10 8 -18t18 -8t18 8t8 18v313q0 13 12 26l199 179q18 14 28 39t10 51v121q0 29 17 50t41 21h505q24 0 41 -21t17 -50v-736q0 -9 8 -17t17.5 -8t17.5 8t8 17v736q0 53 -29.5 87.5t-72.5 34.5zM749 109
q-43 0 -74.5 -25.5t-40.5 -64.5h-269q-10 39 -41.5 64.5t-73.5 25.5q-48 0 -82 -33.5t-34 -81.5q0 -49 34 -85.5t82 -36.5q42 0 73.5 25t41.5 65h269q9 -40 40.5 -65t74.5 -25q48 0 81.5 33.5t33.5 81.5q0 49 -34 85.5t-81 36.5z" />
    <glyph glyph-name="uniE61C" unicode="&#xe61c;" horiz-adv-x="1026" 
d="M841 690h41q8 0 13 -7l178 -223q3 -5 3 -10v-274q0 -21 -15 -36t-36 -15h-61q-6 -47 -40.5 -79.5t-82.5 -35.5v32q38 4 64.5 32.5t26.5 67t-26 67t-65 32.5v33q47 -4 82 -36.5t41 -79.5h61q8 0 13 5q6 6 6 13v198h-203v33h203v37l-91 114h-112v32h86l-53 67h-33v33z
M315 861q31 -17 55 -42q12 -12 22 -25h182q27 0 46 -19t19 -47v-38h202v-33h-202v-499h62q6 49 44 82.5t87 33.5h9v-33h-9q-41 0 -70 -29t-29 -70t29 -70.5t70 -29.5q6 0 9 1v-33q-6 -1 -9 -1q-49 0 -87 33.5t-44 83.5h-330q-7 -59 -56 -93v44q25 28 25 65t-25 65v43
q49 -34 56 -92h235v570q0 14 -9 24q-10 9 -23 9h-161q30 -55 30 -117q0 -102 -73 -174q-24 -25 -54 -42v39q17 12 31 26q63 63 63 151.5t-63 151.5q-14 14 -32 26v39zM841 590h-38q-22 0 -37 -15.5t-15 -36.5v-112q0 -21 15 -36.5t37 -15.5h38v33h-38q-8 0 -14 5.5t-6 13.5
v112q0 8 6 14t14 6h38v32zM196 891q64 0 119 -31v-38q-54 37 -119 37q-20 0 -39 -4v33q19 3 39 3v0zM315 33q-34 -24 -75 -24q-47 0 -83 30v48q29 -45 83 -45q46 0 75 35v-44zM315 467v-38q-55 -31 -119 -31q-20 0 -39 3v33q19 -4 39 -4q65 0 119 37v0zM315 250v-43
q-29 34 -75 34q-54 0 -83 -45v48q36 30 83 30q41 0 75 -24v0zM157 590v43l23 19v141q0 11 8 15.5t16 0t8 -15.5v-148q0 -8 -6 -13zM157 39q-42 34 -48 87h-52q-27 0 -46 19t-19 46v314q-43 63 -43 140q0 102 72 174q57 57 136 69v-33q-65 -12 -113 -59q-63 -63 -63 -151
q0 -89 63 -152q47 -47 113 -59v-33q-76 12 -132 66v-276q0 -14 9.5 -23.5t22.5 -9.5h52q6 52 48 86v-48q-17 -25 -17 -54q0 -30 17 -55v-48zM157 633l-26 -22l-23 -19q-9 -7 -6.5 -16.5t10.5 -12t17 3.5l28 23v43zM157 633z" />
  </font>
</defs>
</svg>
